<mxfile host="app.diagrams.net" agent="Mozilla/5.0 (Windows NT 10.0; Win64; x64) AppleWebKit/537.36 (KHTML, like Gecko) Chrome/130.0.0.0 Safari/537.36 Edg/130.0.0.0" version="24.7.16">
  <diagram name="Page-1" id="Vz9Xneo3NRTENV6SAtgd">
    <mxGraphModel dx="3415" dy="1226" grid="1" gridSize="10" guides="1" tooltips="1" connect="1" arrows="1" fold="1" page="1" pageScale="1" pageWidth="1169" pageHeight="827" background="none" math="0" shadow="0">
      <root>
        <mxCell id="0" />
        <mxCell id="1" parent="0" />
        <mxCell id="O5OFBjk-bMjDaSEXL3zS-1" value="Penumpang" style="whiteSpace=wrap;html=1;align=center;" vertex="1" parent="1">
          <mxGeometry x="60" y="400" width="100" height="40" as="geometry" />
        </mxCell>
        <mxCell id="O5OFBjk-bMjDaSEXL3zS-3" value="Tiket" style="whiteSpace=wrap;html=1;align=center;" vertex="1" parent="1">
          <mxGeometry x="570" y="400" width="100" height="40" as="geometry" />
        </mxCell>
        <mxCell id="O5OFBjk-bMjDaSEXL3zS-4" value="Kereta" style="whiteSpace=wrap;html=1;align=center;" vertex="1" parent="1">
          <mxGeometry x="60" y="670" width="100" height="40" as="geometry" />
        </mxCell>
        <mxCell id="O5OFBjk-bMjDaSEXL3zS-5" value="Invoice" style="whiteSpace=wrap;html=1;align=center;" vertex="1" parent="1">
          <mxGeometry x="570" y="660" width="100" height="40" as="geometry" />
        </mxCell>
        <mxCell id="O5OFBjk-bMjDaSEXL3zS-9" value="Beli" style="shape=rhombus;perimeter=rhombusPerimeter;whiteSpace=wrap;html=1;align=center;" vertex="1" parent="1">
          <mxGeometry x="350" y="390" width="120" height="60" as="geometry" />
        </mxCell>
        <mxCell id="O5OFBjk-bMjDaSEXL3zS-11" value="ID_Penumpang" style="ellipse;whiteSpace=wrap;html=1;align=center;fontStyle=4;" vertex="1" parent="1">
          <mxGeometry y="290" width="100" height="40" as="geometry" />
        </mxCell>
        <mxCell id="O5OFBjk-bMjDaSEXL3zS-12" value="Nama" style="ellipse;whiteSpace=wrap;html=1;align=center;" vertex="1" parent="1">
          <mxGeometry x="110" y="290" width="100" height="40" as="geometry" />
        </mxCell>
        <mxCell id="O5OFBjk-bMjDaSEXL3zS-13" value="Alamat" style="ellipse;whiteSpace=wrap;html=1;align=center;" vertex="1" parent="1">
          <mxGeometry x="190" y="330" width="100" height="40" as="geometry" />
        </mxCell>
        <mxCell id="O5OFBjk-bMjDaSEXL3zS-14" value="Telepon" style="ellipse;whiteSpace=wrap;html=1;align=center;" vertex="1" parent="1">
          <mxGeometry x="-90" y="320" width="100" height="40" as="geometry" />
        </mxCell>
        <mxCell id="O5OFBjk-bMjDaSEXL3zS-69" value="" style="edgeStyle=orthogonalEdgeStyle;rounded=0;orthogonalLoop=1;jettySize=auto;html=1;" edge="1" parent="1" source="O5OFBjk-bMjDaSEXL3zS-15" target="O5OFBjk-bMjDaSEXL3zS-14">
          <mxGeometry relative="1" as="geometry" />
        </mxCell>
        <mxCell id="O5OFBjk-bMjDaSEXL3zS-15" value="Email" style="ellipse;whiteSpace=wrap;html=1;align=center;" vertex="1" parent="1">
          <mxGeometry x="-120" y="374" width="100" height="40" as="geometry" />
        </mxCell>
        <mxCell id="O5OFBjk-bMjDaSEXL3zS-17" value="" style="endArrow=none;html=1;rounded=0;exitX=0.5;exitY=1;exitDx=0;exitDy=0;entryX=0.5;entryY=0;entryDx=0;entryDy=0;" edge="1" parent="1" source="O5OFBjk-bMjDaSEXL3zS-11" target="O5OFBjk-bMjDaSEXL3zS-1">
          <mxGeometry relative="1" as="geometry">
            <mxPoint x="80" y="490" as="sourcePoint" />
            <mxPoint x="240" y="490" as="targetPoint" />
          </mxGeometry>
        </mxCell>
        <mxCell id="O5OFBjk-bMjDaSEXL3zS-18" value="" style="endArrow=none;html=1;rounded=0;exitX=0.5;exitY=0;exitDx=0;exitDy=0;entryX=0.5;entryY=1;entryDx=0;entryDy=0;" edge="1" parent="1" source="O5OFBjk-bMjDaSEXL3zS-1" target="O5OFBjk-bMjDaSEXL3zS-12">
          <mxGeometry relative="1" as="geometry">
            <mxPoint x="120" y="344" as="sourcePoint" />
            <mxPoint x="180" y="414" as="targetPoint" />
          </mxGeometry>
        </mxCell>
        <mxCell id="O5OFBjk-bMjDaSEXL3zS-19" value="" style="endArrow=none;html=1;rounded=0;exitX=0.5;exitY=0;exitDx=0;exitDy=0;entryX=0.5;entryY=1;entryDx=0;entryDy=0;" edge="1" parent="1" source="O5OFBjk-bMjDaSEXL3zS-1" target="O5OFBjk-bMjDaSEXL3zS-13">
          <mxGeometry relative="1" as="geometry">
            <mxPoint x="190" y="360" as="sourcePoint" />
            <mxPoint x="250" y="430" as="targetPoint" />
          </mxGeometry>
        </mxCell>
        <mxCell id="O5OFBjk-bMjDaSEXL3zS-20" value="" style="endArrow=none;html=1;rounded=0;exitX=0.5;exitY=1;exitDx=0;exitDy=0;entryX=1;entryY=0.5;entryDx=0;entryDy=0;" edge="1" parent="1" target="O5OFBjk-bMjDaSEXL3zS-15">
          <mxGeometry relative="1" as="geometry">
            <mxPoint x="120.00000000000045" y="400" as="sourcePoint" />
            <mxPoint x="-70" y="380" as="targetPoint" />
          </mxGeometry>
        </mxCell>
        <mxCell id="O5OFBjk-bMjDaSEXL3zS-21" value="" style="endArrow=none;html=1;rounded=0;exitX=1;exitY=0.5;exitDx=0;exitDy=0;entryX=0.5;entryY=0;entryDx=0;entryDy=0;" edge="1" parent="1" source="O5OFBjk-bMjDaSEXL3zS-14" target="O5OFBjk-bMjDaSEXL3zS-1">
          <mxGeometry relative="1" as="geometry">
            <mxPoint x="-90" y="414" as="sourcePoint" />
            <mxPoint x="70.00000000000045" y="504" as="targetPoint" />
          </mxGeometry>
        </mxCell>
        <mxCell id="O5OFBjk-bMjDaSEXL3zS-23" value="Kode_Pemesanan" style="ellipse;whiteSpace=wrap;html=1;align=center;fontStyle=4;" vertex="1" parent="1">
          <mxGeometry x="460" y="250" width="100" height="40" as="geometry" />
        </mxCell>
        <mxCell id="O5OFBjk-bMjDaSEXL3zS-24" value="ID_Penumpang" style="ellipse;whiteSpace=wrap;html=1;align=center;" vertex="1" parent="1">
          <mxGeometry x="560" y="220" width="100" height="40" as="geometry" />
        </mxCell>
        <mxCell id="O5OFBjk-bMjDaSEXL3zS-25" value="Tanggal_Perjalanan" style="ellipse;whiteSpace=wrap;html=1;align=center;" vertex="1" parent="1">
          <mxGeometry x="780" y="210" width="130" height="60" as="geometry" />
        </mxCell>
        <mxCell id="O5OFBjk-bMjDaSEXL3zS-26" value="Nama_Kereta" style="ellipse;whiteSpace=wrap;html=1;align=center;" vertex="1" parent="1">
          <mxGeometry x="820" y="290" width="100" height="40" as="geometry" />
        </mxCell>
        <mxCell id="O5OFBjk-bMjDaSEXL3zS-27" value="Jadwal" style="ellipse;whiteSpace=wrap;html=1;align=center;" vertex="1" parent="1">
          <mxGeometry x="810" y="360" width="100" height="40" as="geometry" />
        </mxCell>
        <mxCell id="O5OFBjk-bMjDaSEXL3zS-28" value="Kelas" style="ellipse;whiteSpace=wrap;html=1;align=center;" vertex="1" parent="1">
          <mxGeometry x="795" y="430" width="100" height="40" as="geometry" />
        </mxCell>
        <mxCell id="O5OFBjk-bMjDaSEXL3zS-29" value="Jenis_Penumpang" style="ellipse;whiteSpace=wrap;html=1;align=center;" vertex="1" parent="1">
          <mxGeometry x="740" y="520" width="100" height="40" as="geometry" />
        </mxCell>
        <mxCell id="O5OFBjk-bMjDaSEXL3zS-30" value="Nomor_Kursi" style="ellipse;whiteSpace=wrap;html=1;align=center;" vertex="1" parent="1">
          <mxGeometry x="450" y="300" width="100" height="40" as="geometry" />
        </mxCell>
        <mxCell id="O5OFBjk-bMjDaSEXL3zS-31" value="Nama_Kereta" style="ellipse;whiteSpace=wrap;html=1;align=center;" vertex="1" parent="1">
          <mxGeometry x="780" y="480" width="100" height="40" as="geometry" />
        </mxCell>
        <mxCell id="O5OFBjk-bMjDaSEXL3zS-32" value="Nomor_Kereta" style="ellipse;whiteSpace=wrap;html=1;align=center;" vertex="1" parent="1">
          <mxGeometry x="670" y="220" width="100" height="40" as="geometry" />
        </mxCell>
        <mxCell id="O5OFBjk-bMjDaSEXL3zS-35" value="" style="endArrow=none;html=1;rounded=0;exitX=1;exitY=0.5;exitDx=0;exitDy=0;entryX=0.5;entryY=0;entryDx=0;entryDy=0;" edge="1" parent="1" source="O5OFBjk-bMjDaSEXL3zS-30" target="O5OFBjk-bMjDaSEXL3zS-3">
          <mxGeometry relative="1" as="geometry">
            <mxPoint x="600" y="440" as="sourcePoint" />
            <mxPoint x="620" y="360" as="targetPoint" />
          </mxGeometry>
        </mxCell>
        <mxCell id="O5OFBjk-bMjDaSEXL3zS-36" value="" style="endArrow=none;html=1;rounded=0;exitX=1;exitY=1;exitDx=0;exitDy=0;entryX=0.5;entryY=0;entryDx=0;entryDy=0;" edge="1" parent="1" source="O5OFBjk-bMjDaSEXL3zS-23" target="O5OFBjk-bMjDaSEXL3zS-3">
          <mxGeometry relative="1" as="geometry">
            <mxPoint x="640" y="300" as="sourcePoint" />
            <mxPoint x="710" y="350" as="targetPoint" />
          </mxGeometry>
        </mxCell>
        <mxCell id="O5OFBjk-bMjDaSEXL3zS-37" value="" style="endArrow=none;html=1;rounded=0;entryX=0.5;entryY=1;entryDx=0;entryDy=0;exitX=0.5;exitY=0;exitDx=0;exitDy=0;" edge="1" parent="1" source="O5OFBjk-bMjDaSEXL3zS-3" target="O5OFBjk-bMjDaSEXL3zS-24">
          <mxGeometry relative="1" as="geometry">
            <mxPoint x="620" y="360" as="sourcePoint" />
            <mxPoint x="680" y="370" as="targetPoint" />
          </mxGeometry>
        </mxCell>
        <mxCell id="O5OFBjk-bMjDaSEXL3zS-41" value="" style="endArrow=none;html=1;rounded=0;exitX=0.5;exitY=0;exitDx=0;exitDy=0;entryX=0.5;entryY=1;entryDx=0;entryDy=0;" edge="1" parent="1" source="O5OFBjk-bMjDaSEXL3zS-3" target="O5OFBjk-bMjDaSEXL3zS-32">
          <mxGeometry relative="1" as="geometry">
            <mxPoint x="720" y="300" as="sourcePoint" />
            <mxPoint x="790" y="350" as="targetPoint" />
          </mxGeometry>
        </mxCell>
        <mxCell id="O5OFBjk-bMjDaSEXL3zS-44" value="" style="endArrow=none;html=1;rounded=0;exitX=1;exitY=0.5;exitDx=0;exitDy=0;entryX=0;entryY=0.5;entryDx=0;entryDy=0;" edge="1" parent="1" source="O5OFBjk-bMjDaSEXL3zS-3" target="O5OFBjk-bMjDaSEXL3zS-27">
          <mxGeometry relative="1" as="geometry">
            <mxPoint x="699.9999999999995" y="380" as="sourcePoint" />
            <mxPoint x="819.9999999999995" y="500" as="targetPoint" />
          </mxGeometry>
        </mxCell>
        <mxCell id="O5OFBjk-bMjDaSEXL3zS-45" value="Muncul" style="shape=rhombus;perimeter=rhombusPerimeter;whiteSpace=wrap;html=1;align=center;" vertex="1" parent="1">
          <mxGeometry x="560" y="530" width="120" height="60" as="geometry" />
        </mxCell>
        <mxCell id="O5OFBjk-bMjDaSEXL3zS-46" value="ID_Penumpang" style="ellipse;whiteSpace=wrap;html=1;align=center;" vertex="1" parent="1">
          <mxGeometry x="795" y="640" width="100" height="40" as="geometry" />
        </mxCell>
        <mxCell id="O5OFBjk-bMjDaSEXL3zS-47" value="Kode_Pembayaran" style="ellipse;whiteSpace=wrap;html=1;align=center;fontStyle=4;" vertex="1" parent="1">
          <mxGeometry x="420" y="770" width="110" height="50" as="geometry" />
        </mxCell>
        <mxCell id="O5OFBjk-bMjDaSEXL3zS-48" value="Kode_Pemesanan" style="ellipse;whiteSpace=wrap;html=1;align=center;" vertex="1" parent="1">
          <mxGeometry x="380" y="680" width="100" height="40" as="geometry" />
        </mxCell>
        <mxCell id="O5OFBjk-bMjDaSEXL3zS-49" value="Nominal" style="ellipse;whiteSpace=wrap;html=1;align=center;" vertex="1" parent="1">
          <mxGeometry x="770" y="820" width="100" height="40" as="geometry" />
        </mxCell>
        <mxCell id="O5OFBjk-bMjDaSEXL3zS-50" value="Jumlah_Penumpang" style="ellipse;whiteSpace=wrap;html=1;align=center;" vertex="1" parent="1">
          <mxGeometry x="640" y="840" width="100" height="40" as="geometry" />
        </mxCell>
        <mxCell id="O5OFBjk-bMjDaSEXL3zS-51" value="Jenis_Penumpang" style="ellipse;whiteSpace=wrap;html=1;align=center;" vertex="1" parent="1">
          <mxGeometry x="510" y="827" width="100" height="40" as="geometry" />
        </mxCell>
        <mxCell id="O5OFBjk-bMjDaSEXL3zS-52" value="Total_Pembayaran" style="ellipse;whiteSpace=wrap;html=1;align=center;" vertex="1" parent="1">
          <mxGeometry x="830" y="740" width="100" height="40" as="geometry" />
        </mxCell>
        <mxCell id="O5OFBjk-bMjDaSEXL3zS-53" value="Nama" style="ellipse;whiteSpace=wrap;html=1;align=center;" vertex="1" parent="1">
          <mxGeometry x="1020" y="550" width="100" height="40" as="geometry" />
        </mxCell>
        <mxCell id="O5OFBjk-bMjDaSEXL3zS-54" value="Alamat" style="ellipse;whiteSpace=wrap;html=1;align=center;" vertex="1" parent="1">
          <mxGeometry x="1030" y="620" width="100" height="40" as="geometry" />
        </mxCell>
        <mxCell id="O5OFBjk-bMjDaSEXL3zS-55" value="Telepon" style="ellipse;whiteSpace=wrap;html=1;align=center;" vertex="1" parent="1">
          <mxGeometry x="1030" y="680" width="100" height="40" as="geometry" />
        </mxCell>
        <mxCell id="O5OFBjk-bMjDaSEXL3zS-56" value="Email" style="ellipse;whiteSpace=wrap;html=1;align=center;" vertex="1" parent="1">
          <mxGeometry x="1040" y="750" width="100" height="40" as="geometry" />
        </mxCell>
        <mxCell id="O5OFBjk-bMjDaSEXL3zS-57" value="" style="endArrow=none;html=1;rounded=0;exitX=1;exitY=0.5;exitDx=0;exitDy=0;entryX=0.037;entryY=0.744;entryDx=0;entryDy=0;entryPerimeter=0;" edge="1" parent="1" source="O5OFBjk-bMjDaSEXL3zS-46" target="O5OFBjk-bMjDaSEXL3zS-53">
          <mxGeometry relative="1" as="geometry">
            <mxPoint x="880" y="650" as="sourcePoint" />
            <mxPoint x="1040" y="650" as="targetPoint" />
          </mxGeometry>
        </mxCell>
        <mxCell id="O5OFBjk-bMjDaSEXL3zS-58" value="" style="endArrow=none;html=1;rounded=0;exitX=1;exitY=0.5;exitDx=0;exitDy=0;" edge="1" parent="1" source="O5OFBjk-bMjDaSEXL3zS-46" target="O5OFBjk-bMjDaSEXL3zS-54">
          <mxGeometry relative="1" as="geometry">
            <mxPoint x="905" y="670" as="sourcePoint" />
            <mxPoint x="1034" y="590" as="targetPoint" />
          </mxGeometry>
        </mxCell>
        <mxCell id="O5OFBjk-bMjDaSEXL3zS-59" value="" style="endArrow=none;html=1;rounded=0;exitX=1;exitY=0.5;exitDx=0;exitDy=0;entryX=0;entryY=0.5;entryDx=0;entryDy=0;" edge="1" parent="1" source="O5OFBjk-bMjDaSEXL3zS-46" target="O5OFBjk-bMjDaSEXL3zS-55">
          <mxGeometry relative="1" as="geometry">
            <mxPoint x="905" y="670" as="sourcePoint" />
            <mxPoint x="1042" y="655" as="targetPoint" />
          </mxGeometry>
        </mxCell>
        <mxCell id="O5OFBjk-bMjDaSEXL3zS-60" value="" style="endArrow=none;html=1;rounded=0;exitX=1;exitY=0.5;exitDx=0;exitDy=0;entryX=0;entryY=0.5;entryDx=0;entryDy=0;" edge="1" parent="1" source="O5OFBjk-bMjDaSEXL3zS-46" target="O5OFBjk-bMjDaSEXL3zS-56">
          <mxGeometry relative="1" as="geometry">
            <mxPoint x="905" y="670" as="sourcePoint" />
            <mxPoint x="1040" y="710" as="targetPoint" />
          </mxGeometry>
        </mxCell>
        <mxCell id="O5OFBjk-bMjDaSEXL3zS-62" value="" style="endArrow=none;html=1;rounded=0;exitX=1;exitY=0.5;exitDx=0;exitDy=0;entryX=0;entryY=0.5;entryDx=0;entryDy=0;" edge="1" parent="1" source="O5OFBjk-bMjDaSEXL3zS-5" target="O5OFBjk-bMjDaSEXL3zS-46">
          <mxGeometry relative="1" as="geometry">
            <mxPoint x="757.5" y="715" as="sourcePoint" />
            <mxPoint x="902.5" y="825" as="targetPoint" />
          </mxGeometry>
        </mxCell>
        <mxCell id="O5OFBjk-bMjDaSEXL3zS-63" value="" style="endArrow=none;html=1;rounded=0;exitX=1;exitY=0.5;exitDx=0;exitDy=0;entryX=0;entryY=0.5;entryDx=0;entryDy=0;" edge="1" parent="1" source="O5OFBjk-bMjDaSEXL3zS-5" target="O5OFBjk-bMjDaSEXL3zS-52">
          <mxGeometry relative="1" as="geometry">
            <mxPoint x="670" y="690" as="sourcePoint" />
            <mxPoint x="795" y="670" as="targetPoint" />
          </mxGeometry>
        </mxCell>
        <mxCell id="O5OFBjk-bMjDaSEXL3zS-64" value="" style="endArrow=none;html=1;rounded=0;exitX=0.5;exitY=1;exitDx=0;exitDy=0;entryX=0.5;entryY=0;entryDx=0;entryDy=0;" edge="1" parent="1" source="O5OFBjk-bMjDaSEXL3zS-5" target="O5OFBjk-bMjDaSEXL3zS-49">
          <mxGeometry relative="1" as="geometry">
            <mxPoint x="600" y="720" as="sourcePoint" />
            <mxPoint x="750" y="800" as="targetPoint" />
          </mxGeometry>
        </mxCell>
        <mxCell id="O5OFBjk-bMjDaSEXL3zS-65" value="" style="endArrow=none;html=1;rounded=0;exitX=0.5;exitY=1;exitDx=0;exitDy=0;entryX=0.5;entryY=0;entryDx=0;entryDy=0;" edge="1" parent="1" source="O5OFBjk-bMjDaSEXL3zS-5" target="O5OFBjk-bMjDaSEXL3zS-50">
          <mxGeometry relative="1" as="geometry">
            <mxPoint x="640" y="710" as="sourcePoint" />
            <mxPoint x="830" y="830" as="targetPoint" />
          </mxGeometry>
        </mxCell>
        <mxCell id="O5OFBjk-bMjDaSEXL3zS-66" value="" style="endArrow=none;html=1;rounded=0;exitX=0.5;exitY=1;exitDx=0;exitDy=0;entryX=0.587;entryY=0.11;entryDx=0;entryDy=0;entryPerimeter=0;" edge="1" parent="1" source="O5OFBjk-bMjDaSEXL3zS-5" target="O5OFBjk-bMjDaSEXL3zS-51">
          <mxGeometry relative="1" as="geometry">
            <mxPoint x="640" y="710" as="sourcePoint" />
            <mxPoint x="700" y="850" as="targetPoint" />
          </mxGeometry>
        </mxCell>
        <mxCell id="O5OFBjk-bMjDaSEXL3zS-67" value="" style="endArrow=none;html=1;rounded=0;exitX=0.5;exitY=1;exitDx=0;exitDy=0;entryX=0.5;entryY=0;entryDx=0;entryDy=0;" edge="1" parent="1" source="O5OFBjk-bMjDaSEXL3zS-5" target="O5OFBjk-bMjDaSEXL3zS-47">
          <mxGeometry relative="1" as="geometry">
            <mxPoint x="640" y="710" as="sourcePoint" />
            <mxPoint x="579" y="841" as="targetPoint" />
          </mxGeometry>
        </mxCell>
        <mxCell id="O5OFBjk-bMjDaSEXL3zS-68" value="Naik" style="shape=rhombus;perimeter=rhombusPerimeter;whiteSpace=wrap;html=1;align=center;" vertex="1" parent="1">
          <mxGeometry x="50" y="530" width="120" height="60" as="geometry" />
        </mxCell>
        <mxCell id="O5OFBjk-bMjDaSEXL3zS-70" value="No_Kereta" style="ellipse;whiteSpace=wrap;html=1;align=center;fontStyle=4;" vertex="1" parent="1">
          <mxGeometry x="-60" y="740" width="100" height="40" as="geometry" />
        </mxCell>
        <mxCell id="O5OFBjk-bMjDaSEXL3zS-71" value="Nama_Kereta" style="ellipse;whiteSpace=wrap;html=1;align=center;" vertex="1" parent="1">
          <mxGeometry x="-10" y="800" width="100" height="40" as="geometry" />
        </mxCell>
        <mxCell id="O5OFBjk-bMjDaSEXL3zS-72" value="Kelas_Kereta" style="ellipse;whiteSpace=wrap;html=1;align=center;" vertex="1" parent="1">
          <mxGeometry x="120" y="810" width="100" height="40" as="geometry" />
        </mxCell>
        <mxCell id="O5OFBjk-bMjDaSEXL3zS-73" value="Rute_Kereta" style="ellipse;whiteSpace=wrap;html=1;align=center;" vertex="1" parent="1">
          <mxGeometry x="220" y="770" width="100" height="40" as="geometry" />
        </mxCell>
        <mxCell id="O5OFBjk-bMjDaSEXL3zS-74" value="" style="endArrow=none;html=1;rounded=0;exitX=0.5;exitY=1;exitDx=0;exitDy=0;" edge="1" parent="1" source="O5OFBjk-bMjDaSEXL3zS-4" target="O5OFBjk-bMjDaSEXL3zS-70">
          <mxGeometry relative="1" as="geometry">
            <mxPoint x="-50" y="910" as="sourcePoint" />
            <mxPoint x="110" y="910" as="targetPoint" />
          </mxGeometry>
        </mxCell>
        <mxCell id="O5OFBjk-bMjDaSEXL3zS-75" value="" style="endArrow=none;html=1;rounded=0;exitX=0.5;exitY=1;exitDx=0;exitDy=0;entryX=0.5;entryY=0;entryDx=0;entryDy=0;" edge="1" parent="1" source="O5OFBjk-bMjDaSEXL3zS-4" target="O5OFBjk-bMjDaSEXL3zS-71">
          <mxGeometry relative="1" as="geometry">
            <mxPoint x="140" y="740" as="sourcePoint" />
            <mxPoint x="44" y="761" as="targetPoint" />
          </mxGeometry>
        </mxCell>
        <mxCell id="O5OFBjk-bMjDaSEXL3zS-77" value="" style="endArrow=none;html=1;rounded=0;exitX=0.5;exitY=1;exitDx=0;exitDy=0;" edge="1" parent="1" source="O5OFBjk-bMjDaSEXL3zS-4" target="O5OFBjk-bMjDaSEXL3zS-72">
          <mxGeometry relative="1" as="geometry">
            <mxPoint x="140" y="740" as="sourcePoint" />
            <mxPoint x="50" y="810" as="targetPoint" />
          </mxGeometry>
        </mxCell>
        <mxCell id="O5OFBjk-bMjDaSEXL3zS-78" value="" style="endArrow=none;html=1;rounded=0;entryX=0.5;entryY=0;entryDx=0;entryDy=0;" edge="1" parent="1" target="O5OFBjk-bMjDaSEXL3zS-73">
          <mxGeometry relative="1" as="geometry">
            <mxPoint x="130" y="730" as="sourcePoint" />
            <mxPoint x="172" y="820" as="targetPoint" />
          </mxGeometry>
        </mxCell>
        <mxCell id="O5OFBjk-bMjDaSEXL3zS-79" value="" style="edgeStyle=orthogonalEdgeStyle;fontSize=12;html=1;endArrow=ERoneToMany;rounded=0;exitX=0.5;exitY=0;exitDx=0;exitDy=0;entryX=0.5;entryY=1;entryDx=0;entryDy=0;" edge="1" parent="1" source="O5OFBjk-bMjDaSEXL3zS-68" target="O5OFBjk-bMjDaSEXL3zS-1">
          <mxGeometry width="100" height="100" relative="1" as="geometry">
            <mxPoint x="210" y="620" as="sourcePoint" />
            <mxPoint x="310" y="520" as="targetPoint" />
          </mxGeometry>
        </mxCell>
        <mxCell id="O5OFBjk-bMjDaSEXL3zS-82" value="" style="fontSize=12;html=1;endArrow=ERone;endFill=0;rounded=0;exitX=0.5;exitY=1;exitDx=0;exitDy=0;entryX=0.5;entryY=0;entryDx=0;entryDy=0;" edge="1" parent="1" source="O5OFBjk-bMjDaSEXL3zS-68" target="O5OFBjk-bMjDaSEXL3zS-4">
          <mxGeometry width="100" height="100" relative="1" as="geometry">
            <mxPoint x="170" y="670" as="sourcePoint" />
            <mxPoint x="270" y="570" as="targetPoint" />
          </mxGeometry>
        </mxCell>
        <mxCell id="O5OFBjk-bMjDaSEXL3zS-83" value="" style="edgeStyle=entityRelationEdgeStyle;fontSize=12;html=1;endArrow=ERoneToMany;rounded=0;entryX=1;entryY=0.5;entryDx=0;entryDy=0;exitX=0;exitY=0.5;exitDx=0;exitDy=0;endFill=0;" edge="1" parent="1" source="O5OFBjk-bMjDaSEXL3zS-9" target="O5OFBjk-bMjDaSEXL3zS-1">
          <mxGeometry width="100" height="100" relative="1" as="geometry">
            <mxPoint x="240" y="600" as="sourcePoint" />
            <mxPoint x="340" y="500" as="targetPoint" />
          </mxGeometry>
        </mxCell>
        <mxCell id="O5OFBjk-bMjDaSEXL3zS-84" value="" style="edgeStyle=entityRelationEdgeStyle;fontSize=12;html=1;endArrow=ERoneToMany;rounded=0;exitX=1;exitY=0.5;exitDx=0;exitDy=0;entryX=0;entryY=0.5;entryDx=0;entryDy=0;" edge="1" parent="1" source="O5OFBjk-bMjDaSEXL3zS-9" target="O5OFBjk-bMjDaSEXL3zS-3">
          <mxGeometry width="100" height="100" relative="1" as="geometry">
            <mxPoint x="260" y="570" as="sourcePoint" />
            <mxPoint x="360" y="470" as="targetPoint" />
          </mxGeometry>
        </mxCell>
        <mxCell id="O5OFBjk-bMjDaSEXL3zS-94" value="" style="endArrow=none;html=1;rounded=0;entryX=0;entryY=1;entryDx=0;entryDy=0;" edge="1" parent="1" target="O5OFBjk-bMjDaSEXL3zS-25">
          <mxGeometry relative="1" as="geometry">
            <mxPoint x="620" y="400" as="sourcePoint" />
            <mxPoint x="730" y="270" as="targetPoint" />
          </mxGeometry>
        </mxCell>
        <mxCell id="O5OFBjk-bMjDaSEXL3zS-95" value="" style="endArrow=none;html=1;rounded=0;entryX=0;entryY=0.5;entryDx=0;entryDy=0;exitX=0.5;exitY=0;exitDx=0;exitDy=0;" edge="1" parent="1" source="O5OFBjk-bMjDaSEXL3zS-3" target="O5OFBjk-bMjDaSEXL3zS-26">
          <mxGeometry relative="1" as="geometry">
            <mxPoint x="629.5" y="360" as="sourcePoint" />
            <mxPoint x="830" y="300.24" as="targetPoint" />
          </mxGeometry>
        </mxCell>
        <mxCell id="O5OFBjk-bMjDaSEXL3zS-96" value="" style="endArrow=none;html=1;rounded=0;exitX=0;exitY=0.5;exitDx=0;exitDy=0;entryX=1;entryY=0.5;entryDx=0;entryDy=0;" edge="1" parent="1" source="O5OFBjk-bMjDaSEXL3zS-28" target="O5OFBjk-bMjDaSEXL3zS-3">
          <mxGeometry relative="1" as="geometry">
            <mxPoint x="820" y="430" as="sourcePoint" />
            <mxPoint x="680" y="440" as="targetPoint" />
          </mxGeometry>
        </mxCell>
        <mxCell id="O5OFBjk-bMjDaSEXL3zS-97" value="" style="endArrow=none;html=1;rounded=0;exitX=0;exitY=0.5;exitDx=0;exitDy=0;entryX=1;entryY=0.5;entryDx=0;entryDy=0;" edge="1" parent="1" source="O5OFBjk-bMjDaSEXL3zS-31" target="O5OFBjk-bMjDaSEXL3zS-3">
          <mxGeometry relative="1" as="geometry">
            <mxPoint x="795" y="500" as="sourcePoint" />
            <mxPoint x="670" y="430" as="targetPoint" />
          </mxGeometry>
        </mxCell>
        <mxCell id="O5OFBjk-bMjDaSEXL3zS-98" value="" style="endArrow=none;html=1;rounded=0;exitX=0;exitY=0;exitDx=0;exitDy=0;entryX=1;entryY=0.5;entryDx=0;entryDy=0;" edge="1" parent="1" source="O5OFBjk-bMjDaSEXL3zS-29" target="O5OFBjk-bMjDaSEXL3zS-3">
          <mxGeometry relative="1" as="geometry">
            <mxPoint x="790" y="510" as="sourcePoint" />
            <mxPoint x="680" y="390" as="targetPoint" />
          </mxGeometry>
        </mxCell>
        <mxCell id="O5OFBjk-bMjDaSEXL3zS-101" value="" style="fontSize=12;html=1;endArrow=ERoneToMany;rounded=0;exitX=0.5;exitY=0;exitDx=0;exitDy=0;entryX=0.5;entryY=1;entryDx=0;entryDy=0;" edge="1" parent="1" source="O5OFBjk-bMjDaSEXL3zS-45" target="O5OFBjk-bMjDaSEXL3zS-3">
          <mxGeometry width="100" height="100" relative="1" as="geometry">
            <mxPoint x="340" y="720" as="sourcePoint" />
            <mxPoint x="440" y="620" as="targetPoint" />
          </mxGeometry>
        </mxCell>
        <mxCell id="O5OFBjk-bMjDaSEXL3zS-102" value="" style="fontSize=12;html=1;endArrow=ERoneToMany;rounded=0;exitX=0.5;exitY=1;exitDx=0;exitDy=0;entryX=0.5;entryY=0;entryDx=0;entryDy=0;" edge="1" parent="1" source="O5OFBjk-bMjDaSEXL3zS-45" target="O5OFBjk-bMjDaSEXL3zS-5">
          <mxGeometry width="100" height="100" relative="1" as="geometry">
            <mxPoint x="290" y="760" as="sourcePoint" />
            <mxPoint x="390" y="660" as="targetPoint" />
          </mxGeometry>
        </mxCell>
        <mxCell id="O5OFBjk-bMjDaSEXL3zS-103" value="" style="endArrow=none;html=1;rounded=0;exitX=1;exitY=0.5;exitDx=0;exitDy=0;entryX=0;entryY=0.5;entryDx=0;entryDy=0;" edge="1" parent="1" source="O5OFBjk-bMjDaSEXL3zS-48" target="O5OFBjk-bMjDaSEXL3zS-5">
          <mxGeometry relative="1" as="geometry">
            <mxPoint x="210" y="680" as="sourcePoint" />
            <mxPoint x="370" y="680" as="targetPoint" />
          </mxGeometry>
        </mxCell>
      </root>
    </mxGraphModel>
  </diagram>
</mxfile>
